Coordinates
version=1
nRows=14
nColumns=40
inDegrees=yes

Units are S.I. units (second, meters, Newtons, ...)
Angles are in degrees.

endheader
time	pelvis_tilt	pelvis_list	pelvis_rotation	pelvis_tx	pelvis_ty	pelvis_tz	hip_flexion_r	hip_adduction_r	hip_rotation_r	knee_angle_r	knee_angle_r_beta	ankle_angle_r	subtalar_angle_r	mtp_angle_r	hip_flexion_l	hip_adduction_l	hip_rotation_l	knee_angle_l	knee_angle_l_beta	ankle_angle_l	subtalar_angle_l	mtp_angle_l	lumbar_extension	lumbar_bending	lumbar_rotation	arm_flex_r	arm_add_r	arm_rot_r	elbow_flex_r	pro_sup_r	wrist_flex_r	wrist_dev_r	arm_flex_l	arm_add_l	arm_rot_l	elbow_flex_l	pro_sup_l	wrist_flex_l	wrist_dev_l
     20.29000000	     -4.92604660	     -5.58155088	     -3.94311956	      1.04700578	      0.91898271	      0.54597572	     17.90538556	      7.15831246	     -5.78497661	     24.74853409	     24.74853409	     13.54108745	     -4.93067463	     -2.35050909	     17.15461411	    -15.86742258	     -2.63671681	     50.33771541	     50.33771541	     10.59457072	    -18.21870402	      1.06701999	    -10.55842555	      6.64763479	     -1.35061062	      0.94456641	    -14.21451164	     -5.77041942	     25.88362809	     46.64119521	      0.00000000	      0.00000000	     25.14673062	    -15.35847305	     -5.18190559	     48.28030598	     46.40294831	      0.00000000	      0.00000000
     20.31392857	     -4.55027176	     -5.61545892	     -2.86951072	      1.04588086	      0.91642452	      0.54833788	     18.19270001	      7.33677034	     -5.69130446	     26.39873376	     26.39873376	     14.24081061	     -7.14053739	     -2.43073758	     19.63652629	    -15.92257870	     -0.70667112	     54.54219475	     54.54219475	      9.25160933	    -18.76439585	      2.22816654	    -10.79010131	      6.34037011	     -1.55028010	      3.73382400	    -14.10673116	     -5.87118808	     27.26663319	     46.61031718	      0.00000000	      0.00000000	     21.97064363	    -14.32005857	     -4.50849305	     45.57517536	     46.29459289	      0.00000000	      0.00000000
     20.33785714	     -4.06109009	     -5.64896730	     -1.73667586	      1.04465895	      0.91399216	      0.55053593	     18.33132278	      7.54371856	     -5.57044876	     28.01767428	     28.01767428	     15.12673971	     -9.34224959	     -1.76226007	     22.12053337	    -15.57787789	      1.55398525	     58.76866003	     58.76866003	     10.16816860	    -18.90585521	      9.47470516	    -11.15898198	      6.08229375	     -1.17504147	      6.38407643	    -14.30834265	     -5.75819262	     28.75609351	     46.53807422	      0.00000000	      0.00000000	     20.04773696	    -12.97037887	     -3.02232801	     40.01522040	     46.16029208	      0.00000000	      0.00000000
     20.36178571	     -3.62765575	     -5.66603245	     -0.57939648	      1.04342341	      0.91148146	      0.55263371	     18.47879407	      7.70755775	     -5.63839271	     29.54604166	     29.54604166	     15.99185749	    -11.22202073	     -1.14687733	     24.37939252	    -15.25294123	      3.39632357	     62.12225123	     62.12225123	     10.33675774	    -19.12770121	     13.86736058	    -11.50651744	      5.79888175	     -1.13649597	      9.17154764	    -14.48371675	     -5.74754477	     30.87177666	     46.44463371	      0.00000000	      0.00000000	     17.46197611	    -11.92758946	     -1.91726162	     35.52724792	     46.06025626	      0.00000000	      0.00000000
     20.38571429	     -3.29121544	     -5.73975260	      0.60778013	      1.04213224	      0.90902446	      0.55455993	     18.61011059	      7.91047790	     -5.87319362	     30.81142128	     30.81142128	     16.58611166	    -12.95682393	     -1.04765643	     26.44912830	    -15.07385305	      4.80727217	     64.52497515	     64.52497515	      9.82099831	    -19.34022273	     14.91719478	    -11.79614182	      5.59647539	     -1.41333159	     12.35085395	    -14.55210284	     -5.91360392	     32.79457116	     46.39639262	      0.00000000	      0.00000000	     14.06421109	    -11.14629736	     -1.43472509	     32.78568077	     45.95740257	      0.00000000	      0.00000000
     20.40964286	     -2.88879122	     -5.73089100	      1.75963318	      1.04084011	      0.90728890	      0.55612389	     18.49935852	      8.03934437	     -6.06208217	     31.79813607	     31.79813607	     17.48052199	    -14.29213844	      0.14361172	     28.29775359	    -14.62647356	      6.06447402	     66.29648772	     66.29648772	     11.12148871	    -19.43355794	     19.98497009	    -12.13933580	      5.33985505	     -1.14955836	     15.12998119	    -14.95771621	     -5.75898171	     35.12412054	     46.28893485	      0.00000000	      0.00000000	     11.83107434	    -10.21493669	     -0.37989140	     28.09565790	     45.82543458	      0.00000000	      0.00000000
     20.43357143	     -2.67361339	     -5.75317240	      2.93221554	      1.03943491	      0.90584352	      0.55739905	     18.41235196	      8.13500186	     -6.45839544	     32.39138232	     32.39138232	     17.90360057	    -15.40437626	      0.44445376	     30.00804550	    -14.32886946	      6.86773114	     66.93581955	     66.93581955	     11.44264587	    -19.52705707	     20.64549865	    -12.31438138	      5.10503907	     -1.30907746	     18.22368555	    -15.06605157	     -5.98773742	     37.32232085	     46.23138469	      0.00000000	      0.00000000	      8.54446611	     -9.66813484	     -0.03070155	     25.88311026	     45.72584872	      0.00000000	      0.00000000
     20.45750000	     -2.48676540	     -5.75779113	      4.09212334	      1.03797461	      0.90510191	      0.55816056	     18.17286671	      8.16211617	     -6.97916384	     32.65502306	     32.65502306	     18.38874813	    -16.21923372	      0.86653719	     31.49954266	    -14.00521737	      7.29849718	     66.65613270	     66.65613270	     12.28037615	    -19.58574881	     21.63891313	    -12.51594135	      4.99192948	     -1.23202782	     21.27028537	    -15.38853041	     -6.22622890	     39.64877957	     46.16899567	      0.00000000	      0.00000000	      5.49652956	     -9.13627132	      0.32171413	     23.96171317	     45.62096957	      0.00000000	      0.00000000
     20.48142857	     -2.41332987	     -5.68774719	      5.22324585	      1.03641569	      0.90502985	      0.55848511	     17.85928515	      8.05260860	     -7.58705455	     32.56447013	     32.56447013	     18.74546212	    -16.64548467	      1.36620313	     32.80155179	    -13.49775533	      7.51565506	     65.43725553	     65.43725553	     13.28219353	    -19.60827823	     22.42827333	    -12.60185173	      4.79313087	     -1.02343154	     24.14768994	    -15.79551967	     -6.48500960	     42.12077955	     46.10102432	      0.00000000	      0.00000000	      2.54487573	     -8.71501906	      0.64621873	     22.48146597	     45.51121507	      0.00000000	      0.00000000
     20.50535714	     -2.48904802	     -5.55577132	      6.35631380	      1.03468476	      0.90555979	      0.55829645	     17.53580529	      7.81181437	     -8.27678467	     32.16484765	     32.16484765	     19.04428114	    -16.85073273	      1.95734343	     33.93730045	    -12.79046710	      7.57306283	     63.29940002	     63.29940002	     14.20393160	    -19.60567014	     22.90521234	    -12.58088589	      4.55716057	     -0.75629325	     26.82983259	    -16.27085464	     -6.74810397	     45.04212116	     46.01384934	      0.00000000	      0.00000000	     -0.39688116	     -8.43961395	      1.02639209	     21.56185275	     45.37636571	      0.00000000	      0.00000000
     20.52928571	     -2.60909741	     -5.36673364	      7.44550919	      1.03288146	      0.90679207	      0.55769829	     17.07041647	      7.48632002	     -9.00037846	     31.43522711	     31.43522711	     19.13012553	    -16.87225941	      2.36994735	     34.71130398	    -11.92308301	      7.50807074	     60.25738499	     60.25738499	     14.70551194	    -19.58185638	     22.80295556	    -12.54214328	      4.30872665	     -0.44765320	     29.56676169	    -16.77919733	     -7.02494354	     47.77168524	     45.93783127	      0.00000000	      0.00000000	     -3.20024266	     -8.26316012	      1.31486093	     20.97487649	     45.25284682	      0.00000000	      0.00000000
     20.55321429	     -2.92028659	     -5.18525019	      8.52100325	      1.03093417	      0.90809606	      0.55670025	     16.75416335	      7.09695065	     -9.81375728	     30.60866704	     30.60866704	     19.15415249	    -16.77171971	      2.75864788	     35.35224251	    -10.94039899	      7.45767748	     56.49017454	     56.49017454	     14.22826580	    -19.52722389	     20.94196502	    -12.40089460	      4.10415561	      0.24211110	     31.14242473	    -17.91558361	     -7.17455108	     53.15584162	     45.74029306	      0.00000000	      0.00000000	     -6.52432082	     -8.54587616	      3.02037309	     22.94815822	     44.78604310	      0.00000000	      0.00000000
     20.57714286	     -3.24535286	     -4.89844772	      9.55041152	      1.02902443	      0.90994873	      0.55535086	     16.25535510	      6.60116394	    -10.59972005	     29.47943377	     29.47943377	     19.02599402	    -16.56695445	      2.95191836	     35.64417662	     -9.72239618	      7.51064892	     52.21039444	     52.21039444	     13.78912941	    -19.39389201	     20.80085828	    -12.15714343	      3.75724177	      0.58528656	     34.00404068	    -18.39833001	     -7.43699665	     55.10915935	     45.69590626	      0.00000000	      0.00000000	     -8.82863079	     -8.50625720	      3.37107941	     22.37784135	     44.67298965	      0.00000000	      0.00000000
     20.60107143	     -3.58244614	     -4.70371485	     10.53435161	      1.02718183	      0.91162567	      0.55380637	     15.75615768	      6.14223002	    -11.58535645	     28.32956666	     28.32956666	     18.60452667	    -16.17323074	      2.08297666	     35.56912715	     -8.72031764	      7.46957287	     47.32036297	     47.32036297	     11.17751378	    -19.21898430	     15.84704788	    -12.02581275	      3.57665436	      0.78455920	     36.14218151	    -18.95465475	     -7.42438181	     59.81211259	     45.53494276	      0.00000000	      0.00000000	    -12.21830151	     -9.02683497	      5.62007864	     25.03941971	     44.14549509	      0.00000000	      0.00000000
